# xmcd
# 
# Track frame offsets:
#     163
#     21610
#     50555
#     68638
#     91555
#     121740
#     195501
#     220547
#     255147
# 
# Disc length: 3803
# 
# Revision: 7
# Processed by: cddbd v1.5.2PL0 Copyright (c) Steve Scherf et al.
# Submitted via: fre:ac v1.0.31
# 
DISCID=6a0ed909
DTITLE=ERIC CLAPTON AND STEVE WINWOOD - LIVE FROM MADISON SQUARE GARDEN
DYEAR=2009
DGENRE=Blues
TTITLE0=AFTER MIDNIGHT - ERIC CLAPTON AND STEVE WINWOOD
TTITLE1=SPLIT DECISION - ERIC CLAPTON AND STEVE WINWOOD
TTITLE2=RAMBLING ON MY MIND - ERIC CLAPTON AND STEVE WINWOOD
TTITLE3=GEORGIA ON MY MIND - ERIC CLAPTON AND STEVE WINWOOD
TTITLE4=LITTLE WING - ERIC CLAPTON AND STEVE WINWOOD
TTITLE5=VOODOO CHILE - ERIC CLAPTON AND STEVE WINWOOD
TTITLE6=CAN'T FIND MY WAY HOME - ERIC CLAPTON AND STEVE WINWOOD
TTITLE7=DEAR MR. FANTASY - ERIC CLAPTON AND STEVE WINWOOD
TTITLE8=COCAINE - ERIC CLAPTON AND STEVE WINWOOD
EXTD=CD2
EXTT0=
EXTT1=
EXTT2=
EXTT3=
EXTT4=
EXTT5=
EXTT6=
EXTT7=
EXTT8=
PLAYORDER=
